<?xml version="1.0" encoding="utf-8"?>
<svg xmlns="http://www.w3.org/2000/svg">
<symbol id="arrow-down" viewBox="0 0 14 14">
  <path transform="matrix(1 0 0 -1 0 14)" d="M8.024 4.1v8.6a1.125 1.125 0 0 1-2.25 0V4.1L2.18 7.695A1.125 1.125 0 1 1 .59 6.104L6.103.588c.44-.439 1.151-.439 1.59 0l5.516 5.516a1.125 1.125 0 0 1-1.59 1.59L8.023 4.1z"/>

</symbol>
<symbol id="arrow-up" viewBox="0 0 14 14">
    <path d="M8.024 4.1v8.6a1.125 1.125 0 0 1-2.25 0V4.1L2.18 7.695A1.125 1.125 0 1 1 .59 6.104L6.103.588c.44-.439 1.151-.439 1.59 0l5.516 5.516a1.125 1.125 0 0 1-1.59 1.59L8.023 4.1z"/>

</symbol>
<symbol id="bold" viewBox="0 0 12 14"><path d="M5.997 14H1.72c-.618 0-1.058-.138-1.323-.415C.132 13.308 0 12.867 0 12.262V1.738C0 1.121.135.676.406.406.676.136 1.114 0 1.719 0h4.536c.669 0 1.248.041 1.738.124.49.083.93.242 1.318.478a3.458 3.458 0 0 1 1.461 1.752c.134.366.2.753.2 1.16 0 1.401-.7 2.426-2.1 3.075 1.84.586 2.76 1.726 2.76 3.42 0 .782-.2 1.487-.602 2.114a3.61 3.61 0 0 1-1.623 1.39 5.772 5.772 0 0 1-1.471.377c-.554.073-1.2.11-1.939.11zm-.21-6.217h-2.95v4.087h3.046c1.916 0 2.874-.69 2.874-2.072 0-.707-.248-1.22-.745-1.537-.496-.319-1.238-.478-2.225-.478zM2.837 2.13v3.619h2.597c.707 0 1.252-.067 1.638-.2.385-.134.68-.389.883-.765.16-.267.239-.566.239-.897 0-.707-.252-1.176-.755-1.409-.503-.232-1.27-.348-2.301-.348H2.836z"/>
</symbol>
<symbol id="cross" viewBox="0 0 237 237">
  <path transform="rotate(45 280.675 51.325)" d="M191 191V73c0-5.523 4.477-10 10-10h25c5.523 0 10 4.477 10 10v118h118c5.523 0 10 4.477 10 10v25c0 5.523-4.477 10-10 10H236v118c0 5.523-4.477 10-10 10h-25c-5.523 0-10-4.477-10-10V236H73c-5.523 0-10-4.477-10-10v-25c0-5.523 4.477-10 10-10h118z"/>

</symbol>
<symbol id="dots" viewBox="0 0 8 8">
  <circle cx="6.5" cy="1.5" r="1.5"/>
  <circle cx="6.5" cy="6.5" r="1.5"/>
  <circle cx="1.5" cy="1.5" r="1.5"/>
  <circle cx="1.5" cy="6.5" r="1.5"/>

</symbol>
<symbol id="italic" viewBox="0 0 4 11">
    <path d="M3.289 4.17L2.164 9.713c-.078.384-.238.674-.48.87-.243.198-.52.296-.831.296-.312 0-.545-.1-.699-.302-.153-.202-.192-.49-.116-.864L1.15 4.225c.077-.38.232-.665.466-.857a1.25 1.25 0 01.818-.288c.312 0 .55.096.713.288.163.192.21.46.141.801zm-.667-2.09c-.295 0-.53-.09-.706-.273-.176-.181-.233-.439-.173-.77.055-.302.207-.55.457-.745C2.45.097 2.716 0 3 0c.273 0 .5.088.68.265.179.176.238.434.177.771-.06.327-.21.583-.45.767-.24.185-.502.277-.785.277z"/>

</symbol>
<symbol id="link" viewBox="0 0 14 10">
  <path d="M6 0v2H5a3 3 0 000 6h1v2H5A5 5 0 115 0h1zm2 0h1a5 5 0 110 10H8V8h1a3 3 0 000-6H8V0zM5 4h4a1 1 0 110 2H5a1 1 0 110-2z"/>

</symbol>
<symbol id="paragraph-1" viewBox="0 0 16 16">
  <path id="Paragraph-1" d="M1.5,12.165H4.165V8.977H5.618a3.389,3.389,0,0,0,2.388-.732,2.649,2.649,0,0,0,.782-2.033A2.571,2.571,0,0,0,8.071,4.26a3.02,3.02,0,0,0-2.159-.686H1.5v8.59ZM4.165,5.321H4.921A1.4,1.4,0,0,1,5.935,5.6a0.954,0.954,0,0,1,.27.686,0.859,0.859,0,0,1-.311.683,1.673,1.673,0,0,1-1.078.267H4.165V5.321Zm7.8-.437a3.207,3.207,0,0,1-.879,1.133A4.836,4.836,0,0,1,9.513,6.8V8.434a7.371,7.371,0,0,0,1.145-.439,6.113,6.113,0,0,0,.945-0.6v4.771h2.012V4.885H11.97Z"/>

</symbol>
<symbol id="paragraph-2" viewBox="0 0 16 16">
  <path id="Paragraph-2" d="M1.5,12.165H4.165V8.977H5.618a3.389,3.389,0,0,0,2.388-.732,2.649,2.649,0,0,0,.782-2.033A2.571,2.571,0,0,0,8.071,4.26a3.02,3.02,0,0,0-2.159-.686H1.5v8.59ZM4.165,5.321H4.921A1.4,1.4,0,0,1,5.935,5.6a0.954,0.954,0,0,1,.27.686,0.859,0.859,0,0,1-.311.683,1.673,1.673,0,0,1-1.078.267H4.165V5.321Zm10.763,5.223H11.823q0.273-.269.476-0.435t0.8-.581A5.252,5.252,0,0,0,14.5,8.219a2.275,2.275,0,0,0,.383-1.25,1.942,1.942,0,0,0-.335-1.111,1.988,1.988,0,0,0-.918-0.735,4.442,4.442,0,0,0-1.633-.239,3.989,3.989,0,0,0-1.575.251,1.994,1.994,0,0,0-.881.723,3.172,3.172,0,0,0-.43,1.311L11.1,7.331a1.466,1.466,0,0,1,.325-0.845,0.921,0.921,0,0,1,1.23-.007,0.747,0.747,0,0,1,.242.559,1.1,1.1,0,0,1-.244.64,5.807,5.807,0,0,1-1.118.986A8.384,8.384,0,0,0,9.584,10.5a3.737,3.737,0,0,0-.623,1.663h5.967V10.544Z"/>

</symbol>
<symbol id="paragraph-3" viewBox="0 0 16 16">
  <path id="Paragraph-3" d="M1.5,12.165H4.165V8.977H5.618a3.389,3.389,0,0,0,2.388-.732,2.649,2.649,0,0,0,.782-2.033A2.571,2.571,0,0,0,8.071,4.26a3.02,3.02,0,0,0-2.159-.686H1.5v8.59ZM4.165,5.321H4.921A1.4,1.4,0,0,1,5.935,5.6a0.954,0.954,0,0,1,.27.686,0.859,0.859,0,0,1-.311.683,1.673,1.673,0,0,1-1.078.267H4.165V5.321Zm7.17,1.011a0.788,0.788,0,0,1,.571-0.212,0.726,0.726,0,0,1,.537.2,0.707,0.707,0,0,1,.2.522,0.789,0.789,0,0,1-.261.591,0.907,0.907,0,0,1-.652.249,1.89,1.89,0,0,1-.259-0.024l-0.1,1.421a2.513,2.513,0,0,1,.644-0.117,0.908,0.908,0,0,1,.7.273,1.085,1.085,0,0,1,.256.771,1.117,1.117,0,0,1-.266.781,0.862,0.862,0,0,1-.666.293,0.879,0.879,0,0,1-.627-0.232,1.547,1.547,0,0,1-.364-0.832l-1.987.264a3.084,3.084,0,0,0,.559,1.111,2.3,2.3,0,0,0,.928.671,4.193,4.193,0,0,0,1.541.229,3.6,3.6,0,0,0,1.616-.31,2.192,2.192,0,0,0,.942-0.884,2.386,2.386,0,0,0,.327-1.2,1.749,1.749,0,0,0-.2-0.857,1.548,1.548,0,0,0-.554-0.579,2.259,2.259,0,0,0-.635-0.239,2.158,2.158,0,0,0,.767-0.659A1.468,1.468,0,0,0,14.6,6.72a1.641,1.641,0,0,0-.625-1.313,3.152,3.152,0,0,0-2.026-.522,3.2,3.2,0,0,0-1.887.479,2.36,2.36,0,0,0-.9,1.377l1.88,0.337A1.287,1.287,0,0,1,11.335,6.332Z"/>

</symbol>
<symbol id="paragraph-4" viewBox="0 0 16 16">
  <path id="Paragraph-4" d="M1.5,12.165H4.165V8.977H5.618a3.389,3.389,0,0,0,2.388-.732,2.649,2.649,0,0,0,.782-2.033A2.571,2.571,0,0,0,8.071,4.26a3.02,3.02,0,0,0-2.159-.686H1.5v8.59ZM4.165,5.321H4.921A1.4,1.4,0,0,1,5.935,5.6a0.954,0.954,0,0,1,.27.686,0.859,0.859,0,0,1-.311.683,1.673,1.673,0,0,1-1.078.267H4.165V5.321Zm8.361,6.844H14.26V10.827h0.9V9.284h-0.9v-4.4H12.526L8.9,9.191v1.636h3.623v1.338ZM10.612,9.284l1.914-2.253V9.284H10.612Z"/>

</symbol>
<symbol id="plus" viewBox="0 0 14 14">
    <path d="M8.05 5.8h4.625a1.125 1.125 0 0 1 0 2.25H8.05v4.625a1.125 1.125 0 0 1-2.25 0V8.05H1.125a1.125 1.125 0 0 1 0-2.25H5.8V1.125a1.125 1.125 0 0 1 2.25 0V5.8z"/>

</symbol>
<symbol id="sad-face" viewBox="0 0 52 52">
    <path fill="#D76B6B" fill-rule="nonzero" d="M26 52C11.64 52 0 40.36 0 26S11.64 0 26 0s26 11.64 26 26-11.64 26-26 26zm0-3.25c12.564 0 22.75-10.186 22.75-22.75S38.564 3.25 26 3.25 3.25 13.436 3.25 26 13.436 48.75 26 48.75zM15.708 33.042a2.167 2.167 0 1 1 0-4.334 2.167 2.167 0 0 1 0 4.334zm23.834 0a2.167 2.167 0 1 1 0-4.334 2.167 2.167 0 0 1 0 4.334zm-15.875 5.452a1.083 1.083 0 1 1-1.834-1.155c1.331-2.114 3.49-3.179 6.334-3.179 2.844 0 5.002 1.065 6.333 3.18a1.083 1.083 0 1 1-1.833 1.154c-.913-1.45-2.366-2.167-4.5-2.167s-3.587.717-4.5 2.167z"/>

</symbol>
<symbol id="toggler-down">
  <path d="M6.5 9.294a.792.792 0 01-.562-.232L2.233 5.356a.794.794 0 011.123-1.123L6.5 7.377l3.144-3.144a.794.794 0 011.123 1.123L7.062 9.062a.792.792 0 01-.562.232z"/>

</symbol>
<symbol id="unlink" viewBox="0 0 15 11">
  <path d="M13.073 2.099l-1.448 1.448A3 3 0 009 2H8V0h1c1.68 0 3.166.828 4.073 2.099zM6.929 4l-.879.879L7.172 6H5a1 1 0 110-2h1.929zM6 0v2H5a3 3 0 100 6h1v2H5A5 5 0 115 0h1zm6.414 7l2.122 2.121-1.415 1.415L11 8.414l-2.121 2.122L7.464 9.12 9.586 7 7.464 4.879 8.88 3.464 11 5.586l2.121-2.122 1.415 1.415L12.414 7z"/>

</symbol>
<symbol id="unsecable" viewBox="0 0 16 14">
  <path d="m 1,7 h 2 l -0.032941,4 H 13 V 7.0164706 h 2.000001 V 13 h -14 z"/>

</symbol></svg>