<svg xmlns="http://www.w3.org/2000/svg" width="16" height="16" viewBox="0 0 16 16">
  <path id="Paragraph-4"
    d="M1.5,12.165H4.165V8.977H5.618a3.389,3.389,0,0,0,2.388-.732,2.649,2.649,0,0,0,.782-2.033A2.571,2.571,0,0,0,8.071,4.26a3.02,3.02,0,0,0-2.159-.686H1.5v8.59ZM4.165,5.321H4.921A1.4,1.4,0,0,1,5.935,5.6a0.954,0.954,0,0,1,.27.686,0.859,0.859,0,0,1-.311.683,1.673,1.673,0,0,1-1.078.267H4.165V5.321Zm8.361,6.844H14.26V10.827h0.9V9.284h-0.9v-4.4H12.526L8.9,9.191v1.636h3.623v1.338ZM10.612,9.284l1.914-2.253V9.284H10.612Z" />
</svg>
