<svg xmlns="http://www.w3.org/2000/svg" width="16" height="16" viewBox="0 0 16 16">
  <path id="Paragraph-1"
    d="M1.5,12.165H4.165V8.977H5.618a3.389,3.389,0,0,0,2.388-.732,2.649,2.649,0,0,0,.782-2.033A2.571,2.571,0,0,0,8.071,4.26a3.02,3.02,0,0,0-2.159-.686H1.5v8.59ZM4.165,5.321H4.921A1.4,1.4,0,0,1,5.935,5.6a0.954,0.954,0,0,1,.27.686,0.859,0.859,0,0,1-.311.683,1.673,1.673,0,0,1-1.078.267H4.165V5.321Zm7.8-.437a3.207,3.207,0,0,1-.879,1.133A4.836,4.836,0,0,1,9.513,6.8V8.434a7.371,7.371,0,0,0,1.145-.439,6.113,6.113,0,0,0,.945-0.6v4.771h2.012V4.885H11.97Z" />
</svg>
