<svg xmlns="http://www.w3.org/2000/svg" width="16" height="16" viewBox="0 0 16 16">
  <path id="Paragraph-3"
    d="M1.5,12.165H4.165V8.977H5.618a3.389,3.389,0,0,0,2.388-.732,2.649,2.649,0,0,0,.782-2.033A2.571,2.571,0,0,0,8.071,4.26a3.02,3.02,0,0,0-2.159-.686H1.5v8.59ZM4.165,5.321H4.921A1.4,1.4,0,0,1,5.935,5.6a0.954,0.954,0,0,1,.27.686,0.859,0.859,0,0,1-.311.683,1.673,1.673,0,0,1-1.078.267H4.165V5.321Zm7.17,1.011a0.788,0.788,0,0,1,.571-0.212,0.726,0.726,0,0,1,.537.2,0.707,0.707,0,0,1,.2.522,0.789,0.789,0,0,1-.261.591,0.907,0.907,0,0,1-.652.249,1.89,1.89,0,0,1-.259-0.024l-0.1,1.421a2.513,2.513,0,0,1,.644-0.117,0.908,0.908,0,0,1,.7.273,1.085,1.085,0,0,1,.256.771,1.117,1.117,0,0,1-.266.781,0.862,0.862,0,0,1-.666.293,0.879,0.879,0,0,1-.627-0.232,1.547,1.547,0,0,1-.364-0.832l-1.987.264a3.084,3.084,0,0,0,.559,1.111,2.3,2.3,0,0,0,.928.671,4.193,4.193,0,0,0,1.541.229,3.6,3.6,0,0,0,1.616-.31,2.192,2.192,0,0,0,.942-0.884,2.386,2.386,0,0,0,.327-1.2,1.749,1.749,0,0,0-.2-0.857,1.548,1.548,0,0,0-.554-0.579,2.259,2.259,0,0,0-.635-0.239,2.158,2.158,0,0,0,.767-0.659A1.468,1.468,0,0,0,14.6,6.72a1.641,1.641,0,0,0-.625-1.313,3.152,3.152,0,0,0-2.026-.522,3.2,3.2,0,0,0-1.887.479,2.36,2.36,0,0,0-.9,1.377l1.88,0.337A1.287,1.287,0,0,1,11.335,6.332Z" />
</svg>
