<svg xmlns="http://www.w3.org/2000/svg" width="16" height="16" viewBox="0 0 16 16">
  <path id="Paragraph-2"
    d="M1.5,12.165H4.165V8.977H5.618a3.389,3.389,0,0,0,2.388-.732,2.649,2.649,0,0,0,.782-2.033A2.571,2.571,0,0,0,8.071,4.26a3.02,3.02,0,0,0-2.159-.686H1.5v8.59ZM4.165,5.321H4.921A1.4,1.4,0,0,1,5.935,5.6a0.954,0.954,0,0,1,.27.686,0.859,0.859,0,0,1-.311.683,1.673,1.673,0,0,1-1.078.267H4.165V5.321Zm10.763,5.223H11.823q0.273-.269.476-0.435t0.8-.581A5.252,5.252,0,0,0,14.5,8.219a2.275,2.275,0,0,0,.383-1.25,1.942,1.942,0,0,0-.335-1.111,1.988,1.988,0,0,0-.918-0.735,4.442,4.442,0,0,0-1.633-.239,3.989,3.989,0,0,0-1.575.251,1.994,1.994,0,0,0-.881.723,3.172,3.172,0,0,0-.43,1.311L11.1,7.331a1.466,1.466,0,0,1,.325-0.845,0.921,0.921,0,0,1,1.23-.007,0.747,0.747,0,0,1,.242.559,1.1,1.1,0,0,1-.244.64,5.807,5.807,0,0,1-1.118.986A8.384,8.384,0,0,0,9.584,10.5a3.737,3.737,0,0,0-.623,1.663h5.967V10.544Z" />
</svg>
